<?xml version="1.0" standalone="no"?>
<!DOCTYPE svg PUBLIC "-//W3C//DTD SVG 20010904//EN"
 "http://www.w3.org/TR/2001/REC-SVG-20010904/DTD/svg10.dtd">
<svg version="1.0" xmlns="http://www.w3.org/2000/svg"
 width="16.000000pt" height="16.000000pt" viewBox="0 0 16.000000 16.000000"
 preserveAspectRatio="xMidYMid meet">
<metadata>
Created by potrace 1.11, written by Peter Selinger 2001-2013
</metadata>
<g transform="translate(0.000000,16.000000) scale(0.006154,-0.006154)"
fill="#000000" stroke="none">
<path d="M1360 1523 c0 -346 -5 -656 -10 -691 -19 -133 -79 -187 -202 -180
-76 4 -110 23 -143 78 -15 27 -20 58 -23 152 l-4 118 -119 0 -119 0 0 -98 c0
-102 23 -220 55 -281 64 -124 184 -185 365 -185 221 -1 337 77 401 269 l24 70
3 688 3 687 -116 0 -115 0 0 -627z"/>
</g>
</svg>
